<svg id="Layer_1" data-name="Layer 1" xmlns="http://www.w3.org/2000/svg" viewBox="0 0 220.69 218.13"><defs><style>.cls-1{fill:none;}.cls-2{fill:#3fa9f5;}.cls-3{fill:#0071bc;}.cls-4{fill:#fff;}.cls-5{fill:#662d91;}</style></defs><title>logos</title><path d="M64.74,17.28v3.45A2.46,2.46,0,0,1,61,22.81a20.78,20.78,0,0,0-10.91-3.23,18.69,18.69,0,0,0-14.06,6c-3.83,4-1,8.68-1,14.43s-2.81,10.63,1,14.53a19,19,0,0,0,14.1,5.86A17.19,17.19,0,0,0,57.44,59a19.78,19.78,0,0,0,3.49-1.89h0a2.46,2.46,0,0,1,3.81,2v3.45a2.48,2.48,0,0,1-1.38,2.21A29.27,29.27,0,0,1,50,68a27.18,27.18,0,0,1-19.81-8.1A26.86,26.86,0,0,1,22,40.23a27.77,27.77,0,0,1,6.83-18.44,27.21,27.21,0,0,1,21.77-9.92,27.2,27.2,0,0,1,12.83,3.26A2.41,2.41,0,0,1,64.74,17.28Z" transform="translate(-22.04 -11.87)"/><path d="M104.67,38.86h18.79a1.79,1.79,0,0,1,1.79,1.79h0a36.92,36.92,0,0,1-1.44,10.8,23,23,0,0,1-4.73,8.13A24.52,24.52,0,0,1,99.9,68.06a26.37,26.37,0,0,1-19.46-8.2,27.19,27.19,0,0,1-8.1-19.77,27.15,27.15,0,0,1,8.24-20,28.49,28.49,0,0,1,31.9-5.64,32.72,32.72,0,0,1,9.14,7.08,1.8,1.8,0,0,1-.05,2.54l-3.16,3a1.77,1.77,0,0,1-2.58-.13q-6.31-7.39-15-7.39A19.38,19.38,0,0,0,86.37,25.5C82.49,29.38,86,34.16,86,40c0,6-3.29,11.08,1,15q6.07,5.43,13.15,5.43A16.27,16.27,0,0,0,111,56.35a14.85,14.85,0,0,0,5-7.56,1.79,1.79,0,0,0-1.73-2.25h-9.57a1.79,1.79,0,0,1-1.79-1.79v-4.1A1.79,1.79,0,0,1,104.67,38.86Z" transform="translate(-22.04 -11.87)"/><path class="cls-1" d="M145.46,80.59h-2.23v8.89h11.56a8.75,8.75,0,0,0,.23-2Q155,80.59,145.46,80.59Z" transform="translate(-22.04 -11.87)"/><path class="cls-1" d="M189.87,88.75v.73h4.06l-1.77-1.65A1.33,1.33,0,0,0,189.87,88.75Z" transform="translate(-22.04 -11.87)"/><path class="cls-2" d="M136.5,117.48A1.52,1.52,0,0,0,138,119h3.69a1.52,1.52,0,0,0,1.52-1.52v-16.6h3.12a17.75,17.75,0,0,0,9-2.13H136.5Z" transform="translate(-22.04 -11.87)"/><path class="cls-2" d="M175,86.22a1.49,1.49,0,0,1,.2-.74L188.3,62.7A1.48,1.48,0,0,0,187,60.48h-3.25a3.36,3.36,0,0,0-2.91,1.68l-9.15,16a.13.13,0,0,1-.22,0l-9.13-16a3.35,3.35,0,0,0-2.91-1.69H156.2a1.48,1.48,0,0,0-1.28,2.21L168,85.48a1.49,1.49,0,0,1,.2.74v3.26H175Z" transform="translate(-22.04 -11.87)"/><path class="cls-2" d="M168.22,103.62a1.48,1.48,0,0,0,1.48,1.48h3.77a1.48,1.48,0,0,0,1.48-1.48V98.75h-6.73Z" transform="translate(-22.04 -11.87)"/><path class="cls-2" d="M189.87,88.75a1.33,1.33,0,0,1,2.29-.92l1.77,1.65h10.44L188.94,75.09a3.37,3.37,0,0,0-5.8,2.33V89.48h6.73Z" transform="translate(-22.04 -11.87)"/><path class="cls-2" d="M212,106.4a3.37,3.37,0,0,0,5.8-2.33V98.75h-14Z" transform="translate(-22.04 -11.87)"/><path class="cls-2" d="M183.14,115.49a1.19,1.19,0,0,0,1.2,1.19h4.34a1.19,1.19,0,0,0,1.19-1.19V98.75h-6.73Z" transform="translate(-22.04 -11.87)"/><path class="cls-2" d="M217.79,66.31a1.2,1.2,0,0,0-1.2-1.2h-4.34a1.2,1.2,0,0,0-1.2,1.2V89.48h6.74Z" transform="translate(-22.04 -11.87)"/><rect class="cls-3" x="152.91" y="77.61" width="8.19" height="9.26"/><path class="cls-3" d="M161.36,89.48a11.78,11.78,0,0,1-3.94,7.81,13,13,0,0,1-2.06,1.46h12.86V89.48Z" transform="translate(-22.04 -11.87)"/><rect class="cls-4" x="146.18" y="77.61" width="6.73" height="9.26"/><path class="cls-4" d="M211.05,89.48V91a2.07,2.07,0,0,1-3.57,1.43l-3.11-2.9H193.93l9.89,9.27h14V89.48Z" transform="translate(-22.04 -11.87)"/><rect class="cls-4" x="161.1" y="77.61" width="6.73" height="9.26"/><path class="cls-2" d="M161.36,89.48a16.36,16.36,0,0,0,.17-1.9,12.78,12.78,0,0,0-3-8.5v10.4Z" transform="translate(-22.04 -11.87)"/><path class="cls-4" d="M158.51,89.48v6.67a12.06,12.06,0,0,0,2.85-6.67Z" transform="translate(-22.04 -11.87)"/><path class="cls-2" d="M152.6,75.16a33.87,33.87,0,0,0-8.47-.79H138a1.53,1.53,0,0,0-1.52,1.53V89.48h6.73V80.59h2.23q9.56,0,9.56,6.91a8.75,8.75,0,0,1-.23,2h3.72V79.08c-.28-.32-.51-.67-.83-1A11.38,11.38,0,0,0,152.6,75.16Z" transform="translate(-22.04 -11.87)"/><path class="cls-1" d="M81.87,114.75v.73h4.06l-1.77-1.65A1.33,1.33,0,0,0,81.87,114.75Z" transform="translate(-22.04 -11.87)"/><path class="cls-2" d="M67,115.48v-3.26a1.49,1.49,0,0,1,.2-.74L80.3,88.7A1.48,1.48,0,0,0,79,86.48H75.77a3.36,3.36,0,0,0-2.91,1.68L64,103.61v11.87Z" transform="translate(-22.04 -11.87)"/><path class="cls-2" d="M64,131.1h1.47A1.48,1.48,0,0,0,67,129.62v-4.87H64Z" transform="translate(-22.04 -11.87)"/><path class="cls-2" d="M80.94,101.09a3.37,3.37,0,0,0-5.8,2.33v12.06h6.73v-.73a1.33,1.33,0,0,1,2.29-.92l1.77,1.65H96.37Z" transform="translate(-22.04 -11.87)"/><path class="cls-2" d="M104,132.4a3.37,3.37,0,0,0,5.8-2.33v-5.32h-14Z" transform="translate(-22.04 -11.87)"/><path class="cls-2" d="M75.14,141.49a1.19,1.19,0,0,0,1.2,1.19h4.34a1.19,1.19,0,0,0,1.19-1.19V124.75H75.14Z" transform="translate(-22.04 -11.87)"/><path class="cls-2" d="M108.59,91.11h-4.34a1.2,1.2,0,0,0-1.2,1.2v23.17h6.74V92.31A1.2,1.2,0,0,0,108.59,91.11Z" transform="translate(-22.04 -11.87)"/><rect class="cls-3" x="44.91" y="103.61" width="8.19" height="9.26"/><path class="cls-3" d="M53.2,116.52c0,.2-.09.4-.14.6C53.11,116.92,53.16,116.72,53.2,116.52Z" transform="translate(-22.04 -11.87)"/><path class="cls-3" d="M28.5,143.48A1.52,1.52,0,0,0,30,145h3.69a1.52,1.52,0,0,0,1.52-1.52v-16.6h3.12a17.75,17.75,0,0,0,9-2.13H28.5Z" transform="translate(-22.04 -11.87)"/><path class="cls-3" d="M63.49,104.12l-9.13-16a3.35,3.35,0,0,0-2.91-1.69H48.2a1.48,1.48,0,0,0-1.28,2.21L60,111.48a1.49,1.49,0,0,1,.2.74v3.26H64V103.61l-.29.51A.13.13,0,0,1,63.49,104.12Z" transform="translate(-22.04 -11.87)"/><path class="cls-3" d="M60.22,124.75v4.87a1.48,1.48,0,0,0,1.48,1.48H64v-6.35Z" transform="translate(-22.04 -11.87)"/><path class="cls-3" d="M53.36,115.48c0,.35-.1.7-.16,1s-.09.4-.14.6-.05.22-.08.33a11.32,11.32,0,0,1-3.56,5.84,13,13,0,0,1-2.06,1.46H60.22v-9.27Z" transform="translate(-22.04 -11.87)"/><path class="cls-3" d="M53.53,113.58a12.78,12.78,0,0,0-3-8.5v10.4h2.85A16.36,16.36,0,0,0,53.53,113.58Z" transform="translate(-22.04 -11.87)"/><path class="cls-3" d="M53.36,115.48c0,.35-.1.7-.16,1C53.26,116.18,53.32,115.83,53.36,115.48Z" transform="translate(-22.04 -11.87)"/><path class="cls-3" d="M53,117.45c0-.11.06-.22.08-.33C53,117.23,53,117.34,53,117.45Z" transform="translate(-22.04 -11.87)"/><path class="cls-3" d="M49.68,104.1a11.38,11.38,0,0,0-5.08-2.94,33.87,33.87,0,0,0-8.47-.79H30a1.53,1.53,0,0,0-1.52,1.53v13.58h6.73v-8.89h2.23q9.56,0,9.56,6.91a8.75,8.75,0,0,1-.23,2h3.72v-10.4C50.23,104.76,50,104.41,49.68,104.1Z" transform="translate(-22.04 -11.87)"/><path class="cls-1" d="M90.87,199.75v.73h4.06l-1.77-1.65A1.33,1.33,0,0,0,90.87,199.75Z" transform="translate(-22.04 -11.87)"/><path class="cls-2" d="M76,200.48v-3.26a1.49,1.49,0,0,1,.2-.74L89.3,173.7A1.48,1.48,0,0,0,88,171.48H84.77a3.36,3.36,0,0,0-2.91,1.68L73,188.61v11.87Z" transform="translate(-22.04 -11.87)"/><path class="cls-2" d="M73,216.1h1.47A1.48,1.48,0,0,0,76,214.62v-4.87H73Z" transform="translate(-22.04 -11.87)"/><path class="cls-2" d="M89.94,186.09a3.37,3.37,0,0,0-5.8,2.33v12.06h6.73v-.73a1.33,1.33,0,0,1,2.29-.92l1.77,1.65h10.44Z" transform="translate(-22.04 -11.87)"/><path class="cls-2" d="M113,217.4a3.37,3.37,0,0,0,5.8-2.33v-5.32h-14Z" transform="translate(-22.04 -11.87)"/><path class="cls-2" d="M84.14,226.49a1.19,1.19,0,0,0,1.2,1.19h4.34a1.19,1.19,0,0,0,1.19-1.19V209.75H84.14Z" transform="translate(-22.04 -11.87)"/><path class="cls-2" d="M117.59,176.11h-4.34a1.2,1.2,0,0,0-1.2,1.2v23.17h6.74V177.31A1.2,1.2,0,0,0,117.59,176.11Z" transform="translate(-22.04 -11.87)"/><rect class="cls-3" x="53.91" y="188.61" width="8.19" height="9.26"/><path class="cls-3" d="M62.2,201.52c0,.2-.09.4-.14.6C62.11,201.92,62.16,201.72,62.2,201.52Z" transform="translate(-22.04 -11.87)"/><path class="cls-3" d="M37.5,228.48A1.52,1.52,0,0,0,39,230h3.69a1.52,1.52,0,0,0,1.52-1.52v-16.6h3.12a17.75,17.75,0,0,0,9-2.13H37.5Z" transform="translate(-22.04 -11.87)"/><path class="cls-3" d="M72.49,189.12l-9.13-16a3.35,3.35,0,0,0-2.91-1.69H57.2a1.48,1.48,0,0,0-1.28,2.21L69,196.48a1.49,1.49,0,0,1,.2.74v3.26H73V188.61l-.29.51A.13.13,0,0,1,72.49,189.12Z" transform="translate(-22.04 -11.87)"/><path class="cls-3" d="M69.22,209.75v4.87a1.48,1.48,0,0,0,1.48,1.48H73v-6.35Z" transform="translate(-22.04 -11.87)"/><path class="cls-3" d="M62.36,200.48c0,.35-.1.7-.16,1s-.09.4-.14.6-.05.22-.08.33a11.32,11.32,0,0,1-3.56,5.84,13,13,0,0,1-2.06,1.46H69.22v-9.27Z" transform="translate(-22.04 -11.87)"/><path class="cls-3" d="M62.53,198.58a12.78,12.78,0,0,0-3-8.5v10.4h2.85A16.36,16.36,0,0,0,62.53,198.58Z" transform="translate(-22.04 -11.87)"/><path class="cls-3" d="M62.36,200.48c0,.35-.1.7-.16,1C62.26,201.18,62.32,200.83,62.36,200.48Z" transform="translate(-22.04 -11.87)"/><path class="cls-3" d="M62,202.45c0-.11.06-.22.08-.33C62,202.23,62,202.34,62,202.45Z" transform="translate(-22.04 -11.87)"/><path class="cls-3" d="M58.68,189.1a11.38,11.38,0,0,0-5.08-2.94,33.87,33.87,0,0,0-8.47-.79H39a1.53,1.53,0,0,0-1.52,1.53v13.58h6.73v-8.89h2.23q9.56,0,9.56,6.91a8.75,8.75,0,0,1-.23,2h3.72v-10.4C59.23,189.76,59,189.41,58.68,189.1Z" transform="translate(-22.04 -11.87)"/><path class="cls-5" d="M168.1,165.21c-2,.07-3.37-.65-3.73-1.87-.1-.29,0-.45.36-.42,2.91.23,8.35-1,10.21-.92,1.38,0,2.62.4,3.11,1.67.1.26,0,.53-.39.49a9.08,9.08,0,0,0-1.29,0,5.89,5.89,0,0,0-5.05,3.42l-.3.57a142.39,142.39,0,0,0-7.31,14.15c-.13.32-.29.32-.52.09-.46-.42-.85-1.4-.42-3,.75-2.69,4.28-9.79,7.33-14.41A16.61,16.61,0,0,1,168.1,165.21Z" transform="translate(-22.04 -11.87)"/><path class="cls-5" d="M177.13,172c.24-.35.46-.4.64-.16a2.88,2.88,0,0,1,0,2.95c-.59,1.2-1.92,3.2-2.56,4.61s-.69,2.64.21,2.58c1.1-.05,2.56-1.86,3.49-3.7.13-.24.32-.26.43,0a2.5,2.5,0,0,1-.24,1.66c-.69,1.46-2.37,2.92-3.84,2.84a2.07,2.07,0,0,1-2.18-2.18,4.67,4.67,0,0,1-3.33,2.08c-2.47,0-3-3.38-.77-6.61s4.26-4.34,5.59-4.34a1.63,1.63,0,0,1,1.63,1.92A17.13,17.13,0,0,1,177.13,172ZM175,173.05c-.85-.08-2.79,1.65-4.26,4s-1.75,4.63-.72,4.66,2.48-1.68,3.84-4C175.54,174.78,175.78,173.13,175,173.05Z" transform="translate(-22.04 -11.87)"/><path class="cls-5" d="M183.55,180.8c-.37-.48-2-.32-3.33.61-.19.13-.37.19-.45,0a2,2,0,0,1,1.14-2.5c4-2.29,5.7-4.9,5-5.8s-4.34,1-6.39,3.54c-.16.21-.34.13-.4-.08a3.22,3.22,0,0,1,1.09-2.88,7.26,7.26,0,0,1,3.86-1.94,2.36,2.36,0,0,1,2.64,1,3.12,3.12,0,0,1-.11,3.54,12.57,12.57,0,0,1-3.94,3.57,2.26,2.26,0,0,1,1.68.53,2.36,2.36,0,0,1,.69,1.3,7.89,7.89,0,0,0,3.2-3.43.26.26,0,0,1,.48,0,2.56,2.56,0,0,1-.38,1.65,7,7,0,0,1-3.24,2.53c0,2.85-2.77,6.87-4.45,7.8a1.2,1.2,0,0,1-1.76-.37,2.75,2.75,0,0,1-.61-3.12c1-2.29,3.2-3.59,5.46-4.52A1.76,1.76,0,0,0,183.55,180.8Zm-4.24,8.09c.48.56,3.25-3.17,4.16-5.86C179.93,185,178.81,188.28,179.31,188.89Z" transform="translate(-22.04 -11.87)"/><path class="cls-5" d="M193,180.8c-.38-.48-2-.32-3.33.61-.19.13-.38.19-.46,0a2,2,0,0,1,1.15-2.5c4-2.29,5.7-4.9,5-5.8s-4.34,1-6.39,3.54c-.16.21-.35.13-.4-.08a3.19,3.19,0,0,1,1.09-2.88,7.22,7.22,0,0,1,3.86-1.94,2.36,2.36,0,0,1,2.64,1,3.12,3.12,0,0,1-.11,3.54,12.57,12.57,0,0,1-3.94,3.57,2.27,2.27,0,0,1,1.68.53,2.43,2.43,0,0,1,.69,1.3,7.93,7.93,0,0,0,3.19-3.43.26.26,0,0,1,.48,0,2.53,2.53,0,0,1-.37,1.65,6.94,6.94,0,0,1-3.25,2.53c0,2.85-2.77,6.87-4.44,7.8a1.2,1.2,0,0,1-1.76-.37,2.75,2.75,0,0,1-.61-3.12c1-2.29,3.19-3.59,5.45-4.52A1.76,1.76,0,0,0,193,180.8Zm-4.24,8.09c.48.56,3.25-3.17,4.16-5.86C189.32,185,188.21,188.28,188.71,188.89Z" transform="translate(-22.04 -11.87)"/><path class="cls-5" d="M197.1,178.75a32.53,32.53,0,0,1,3.4-6.47c.24-.32.43-.4.64-.16a2.77,2.77,0,0,1,0,2.9c-.56,1.17-1.68,3-2.24,4.31-.64,1.55-.59,2.59.27,2.53,1.19-.05,2.66-1.81,3.46-3.65.13-.23.32-.21.42,0a1.89,1.89,0,0,1-.18,1.66,4.77,4.77,0,0,1-4,2.76C196.86,182.63,196.35,180.93,197.1,178.75ZM203,171.8a1,1,0,0,1-1.49-.4,1.65,1.65,0,0,1,.14-2c.42-.45,1.32.57,2.32-.43C204.55,168.45,204,171,203,171.8Z" transform="translate(-22.04 -11.87)"/><path class="cls-5" d="M204.76,181.84c1.28.1,3.15-1.81,4.18-3.86.19-.35.48-.38.59,0a2.43,2.43,0,0,1-.27,1.65c-.37.79-2.31,3-4.44,3-1.84-.05-2.83-1.33-2.21-4.21a27.75,27.75,0,0,1,6.73-12.27c.4-.43.78-.48,1.15-.13a2.73,2.73,0,0,1,.61,2.93c-.83,3.27-3.81,6.47-6.18,8C203.86,179.52,203.56,181.73,204.76,181.84Zm5.43-13.5c-.34-.22-2.31,2.74-4.15,6.15a13.89,13.89,0,0,0-.64,1.28C209.05,172.81,210.54,168.55,210.19,168.34Z" transform="translate(-22.04 -11.87)"/><path class="cls-5" d="M232.1,195.21c-2,.07-3.37-.65-3.73-1.87-.1-.29,0-.45.36-.42,2.91.23,8.35-1,10.21-.92,1.38,0,2.62.4,3.11,1.67.1.26,0,.53-.39.49a9.08,9.08,0,0,0-1.29,0,5.89,5.89,0,0,0-5.05,3.42l-.3.57c-2,3.57-4.93,7.29-4.82,13.8,0,.35-.14.42-.44.31a3,3,0,0,1-1.6-2.55c-.41-2.76,2.89-10.08,5.94-14.7A16.61,16.61,0,0,1,232.1,195.21Z" transform="translate(-22.04 -11.87)"/><path class="cls-5" d="M237.55,209.8c-.37-.48-2-.32-3.33.61-.19.13-.37.19-.45,0a2,2,0,0,1,1.14-2.5c4-2.29,5.7-4.9,5-5.8s-4.34,1-6.39,3.54c-.16.21-.34.13-.4-.08a3.22,3.22,0,0,1,1.09-2.88,7.26,7.26,0,0,1,3.86-1.94,2.36,2.36,0,0,1,2.64,1,3.12,3.12,0,0,1-.11,3.54,12.57,12.57,0,0,1-3.94,3.57,2.26,2.26,0,0,1,1.68.53,2.36,2.36,0,0,1,.69,1.3,7.89,7.89,0,0,0,3.2-3.43.26.26,0,0,1,.48,0,2.56,2.56,0,0,1-.38,1.65,7,7,0,0,1-3.24,2.53c0,2.85-2.77,6.87-4.45,7.8a1.2,1.2,0,0,1-1.76-.37,2.75,2.75,0,0,1-.61-3.12c1-2.29,3.2-3.59,5.46-4.52A1.76,1.76,0,0,0,237.55,209.8Zm-4.24,8.09c.48.56,3.25-3.17,4.16-5.86C233.93,214,232.81,217.28,233.31,217.89Z" transform="translate(-22.04 -11.87)"/><path class="cls-5" d="M192.1,203.21c-2,.07-3.37-.65-3.73-1.87-.1-.29,0-.45.36-.42,2.91.23,8.35-1,10.21-.92,1.38,0,2.62.4,3.11,1.67.1.26,0,.53-.39.49a9.08,9.08,0,0,0-1.29,0,5.89,5.89,0,0,0-5.05,3.42l-.3.57A28.83,28.83,0,0,0,191.14,220c0,.35-.17.41-.46.27-.58-.24-1.29-1-1.44-2.64-.23-2.78,1.81-10,4.86-14.64A16.61,16.61,0,0,1,192.1,203.21Z" transform="translate(-22.04 -11.87)"/><path class="cls-5" d="M202,209c-.85,2.71-8.95,12-8.95,11a65.92,65.92,0,0,1,2-11c.82-2.64,3.84-5.74,5.47-5.44S202.79,206.32,202,209Z" transform="translate(-22.04 -11.87)"/><path class="cls-5" d="M161.1,201.21c-2,.07-3.37-.65-3.73-1.87-.1-.29,0-.45.36-.42,2.91.23,8.35-1,10.21-.92,1.38,0,2.62.4,3.11,1.67.1.26,0,.53-.39.49a9.08,9.08,0,0,0-1.29,0,5.89,5.89,0,0,0-5.05,3.42l-.3.57A28.83,28.83,0,0,0,160.14,218c0,.35-.17.41-.46.27-.58-.24-1.29-1-1.44-2.64-.23-2.78,1.81-10,4.86-14.64A16.61,16.61,0,0,1,161.1,201.21Z" transform="translate(-22.04 -11.87)"/><path class="cls-5" d="M171,207c-.85,2.71-8.95,12-8.95,11a65.92,65.92,0,0,1,2-11c.82-2.64,3.84-5.74,5.47-5.44S171.79,204.32,171,207Z" transform="translate(-22.04 -11.87)"/><path class="cls-5" d="M159,224c-.92,1.85,1,6,0,5-1.17-1.17-4-1.29-4-3.32,0-2.68,1.51-3.19,4-5.68,2-2,2.23.32,1.52,1.5C160.07,222.25,159.39,223.22,159,224Z" transform="translate(-22.04 -11.87)"/></svg>