<?xml version="1.0" encoding="utf-8"?>
<!-- Generator: Adobe Illustrator 22.1.0, SVG Export Plug-In . SVG Version: 6.00 Build 0)  -->
<svg version="1.1" id="Layer_1" xmlns="http://www.w3.org/2000/svg" xmlns:xlink="http://www.w3.org/1999/xlink" x="0px" y="0px"
	 viewBox="0 0 412 163" style="enable-background:new 0 0 412 163;" xml:space="preserve">
<path d="M131,86.5h-0.7v-6.8h0l-1.4,0.7l-0.2-0.8l1.7-0.9h0.6V75l-5.9-3v0.2h-1v-0.7l-5.1-2.6v3.3h-1v-3.8l-3.4-1.8
	c0.1,0.5,0.2,1,0.2,1.6c0,2.7-1,4.1-2.7,4.1c-1.5,0-2.6-1.4-2.6-4c0-1.8,0.6-3,1.4-3.6l-16.5-8.5v1.6h-1v-2.1L90.1,54
	c0,2.5-1,3.9-2.7,3.9c-1.5,0-2.6-1.4-2.6-4c0-1,0.2-1.8,0.4-2.4l-15.8-8.1h-0.7V43l-3.5-1.8c-0.4,1.5-1.2,2.3-2.5,2.3
	c-1.5,0-2.6-1.4-2.6-4c0-0.3,0-0.6,0-0.9l-1-0.5c0.1,0.4,0.1,0.8,0.1,1.3c0,2.7-1,4.1-2.7,4.1c-1.5,0-2.6-1.4-2.6-4
	c0-1.6,0.4-2.8,1.2-3.5L40,28.2c-0.5,0.6-1.1,0.9-1.9,0.9c-1.3,0-2.3-1.1-2.5-3.1l-0.9-0.5c-0.1,2.3-1.1,3.6-2.7,3.6
	c-1.5,0-2.6-1.4-2.6-4c0-0.8,0.1-1.6,0.3-2.1l-3.1-1.6v7.6H26v6.5c1.6,0,2.5,1.5,2.5,3.9c0,2.5-0.9,4-2.5,4.1v6.4
	c1.1,0,1.9,0.7,2.3,2l3.5,1.3v-2.1h0l-1.4,0.7l-0.2-0.8l1.7-0.9h0.9v3.5l2.8,1c0-0.2,0-0.4,0-0.5c0-2.6,1.1-4.1,2.7-4.1
	c1.6,0,2.6,1.5,2.6,3.9c0,1-0.1,1.8-0.4,2.4l3.6,1.3v-6.5h0l-1.4,0.7l-0.2-0.8l1.7-0.9h0.9v7.8h-0.2l18.5,6.6h0.1v0l3.3,1.2
	c0.5-0.9,1.2-1.4,2.1-1.4c1.4,0,2.3,1.1,2.5,3l3.3,1.2v-3.1h0l-1.4,0.7l-0.2-0.8l1.7-0.9h0.9v4.4l2.9,1c-0.1-0.5-0.2-1-0.2-1.5
	c0-2.6,1.1-4.1,2.7-4.1c1.6,0,2.6,1.5,2.6,3.9c0,1.4-0.3,2.5-0.8,3.2l21.9,7.8l0.8-0.4h0.9v1l3,1.1c0.4-1.4,1.3-2.2,2.5-2.2
	c1.6,0,2.6,1.5,2.6,3.9c0,2.7-1,4.1-2.7,4.1c-1.3,0-2.2-1-2.5-2.9l-2.8,1.5v1.3h-1v-0.7l-16.2,8.4c0.4,0.7,0.6,1.6,0.6,2.8
	c0,2.7-1,4.1-2.7,4.1c-1.5,0-2.6-1.4-2.6-4c0-0.2,0-0.3,0-0.5L83.9,97c0,2.6-1,4-2.7,4c-0.9,0-1.7-0.5-2.1-1.5l-15.5,8
	c1.2,0.4,1.8,1.7,1.8,3.8c0,2.7-1,4.1-2.7,4.1c-1.5,0-2.6-1.4-2.6-4c0-0.9,0.2-1.7,0.4-2.4l-3.2,1.6v4.6h-1v-4.1L53,113
	c-0.3,1.6-1.2,2.4-2.5,2.4c-0.5,0-0.9-0.2-1.3-0.4l-16.3,8.5v6.3h-1V124l-3.3,1.7c0,0,0,0,0,0.1c0,2.5-0.9,4-2.5,4.1v6.4
	c1.6,0,2.5,1.5,2.5,3.9c0,0.6-0.1,1.1-0.2,1.6l3.4-1.8v-2.6h0l-1.4,0.7l-0.2-0.8l1.7-0.9h0.9v3.1l3.2-1.7c0.5-1,1.3-1.5,2.2-1.5
	c0.2,0,0.4,0,0.6,0.1l12.7-6.7c-0.3,0.2-0.7,0.3-1.1,0.3c-1.5,0-2.6-1.4-2.6-4c0-2.6,1.1-4.1,2.7-4.1c1.6,0,2.6,1.5,2.6,3.9
	c0,2-0.5,3.3-1.5,3.8l4.8-2.5v-4.1h0l-1.4,0.7l-0.2-0.8l1.7-0.9h0.9v4.6l2.8-1.5c0.2-2.1,1.3-3.3,2.7-3.3c0.8,0,1.4,0.3,1.8,0.9
	l15-7.9c-0.7-0.6-1.1-1.8-1.1-3.4c0-2.6,1.1-4.1,2.7-4.1c1.6,0,2.6,1.5,2.6,3.9c0,0.5,0,0.9-0.1,1.4l3.4-1.8v-2.4h0l-1.4,0.7
	l-0.2-0.8l1.7-0.9h0.9v2.9l3.4-1.8c0.5-0.8,1.2-1.2,2-1.2c0.1,0,0.2,0,0.2,0l12.4-6.5h-0.6v-6.8h0l-1.4,0.7l-0.2-0.8l1.7-0.9h0.9
	v7.6l5.1-2.7v-3.9h0l-1.4,0.7l-0.2-0.8l1.7-0.9h0.9v4.4l5.1-2.7v-0.7h0l-1.4,0.7l-0.2-0.8l1.7-0.9h0.9v1.1l12-6.3V86.5z M32.8,43.3
	h-1v-6.8h0l-1.4,0.7l-0.2-0.8l1.7-0.9h0.9V43.3z M50.4,35.5h0.9v7.8h-1v-6.8h0l-1.4,0.7l-0.2-0.8L50.4,35.5z M38.1,43.5
	c-1.5,0-2.6-1.4-2.6-4c0-2.6,1.1-4.1,2.7-4.1c1.6,0,2.6,1.5,2.6,3.9C40.8,42,39.9,43.5,38.1,43.5z M44.3,43.5c-1.5,0-2.6-1.4-2.6-4
	c0-2.6,1.1-4.1,2.7-4.1c1.6,0,2.6,1.5,2.6,3.9C47,42,46,43.5,44.3,43.5z M50.4,57.9c-1.5,0-2.6-1.4-2.6-4c0-2.6,1.1-4.1,2.7-4.1
	c1.6,0,2.6,1.5,2.6,3.9C53.1,56.4,52.2,57.9,50.4,57.9z M57.4,57.7h-1v-6.8h0L55,51.7l-0.2-0.8l1.7-0.9h0.9V57.7z M62.7,57.9
	c-1.5,0-2.6-1.4-2.6-4c0-2.6,1.1-4.1,2.7-4.1c1.6,0,2.6,1.5,2.6,3.9C65.5,56.4,64.5,57.9,62.7,57.9z M69.7,57.7h-1v-6.8h0l-1.4,0.7
	l-0.2-0.8l1.7-0.9h0.9V57.7z M75.1,57.9c-1.5,0-2.6-1.4-2.6-4c0-2.6,1.1-4.1,2.7-4.1c1.6,0,2.6,1.5,2.6,3.9
	C77.8,56.4,76.8,57.9,75.1,57.9z M82.1,57.7h-1v-6.8h0l-1.4,0.7l-0.2-0.8l1.7-0.9h0.9V57.7z M88.2,72.1h-1v-6.8h0l-1.4,0.7l-0.2-0.8
	l1.7-0.9h0.9V72.1z M93.5,72.3c-1.5,0-2.6-1.4-2.6-4c0-2.6,1.1-4.1,2.7-4.1c1.6,0,2.6,1.5,2.6,3.9C96.2,70.8,95.3,72.3,93.5,72.3z
	 M100.5,72.1h-1v-6.8h0l-1.4,0.7l-0.2-0.8l1.7-0.9h0.9V72.1z M105.8,72.3c-1.5,0-2.6-1.4-2.6-4c0-2.6,1.1-4.1,2.7-4.1
	c1.6,0,2.6,1.5,2.6,3.9C108.5,70.8,107.6,72.3,105.8,72.3z M38.1,129.9c-1.5,0-2.6-1.4-2.6-4c0-2.6,1.1-4.1,2.7-4.1
	c1.6,0,2.6,1.5,2.6,3.9C40.8,128.4,39.9,129.9,38.1,129.9z M45.1,129.7h-1v-6.8h0l-1.4,0.7l-0.2-0.8l1.7-0.9h0.9V129.7z M69.7,115.3
	h-1v-6.8h0l-1.4,0.7l-0.2-0.8l1.7-0.9h0.9V115.3z M75.9,115.3h-1v-6.8h0l-1.4,0.7l-0.2-0.8l1.7-0.9h0.9V115.3z M94.4,100.9h-1v-6.8
	h0L92,94.9l-0.2-0.8l1.7-0.9h0.9V100.9z M99.7,101.1c-1.5,0-2.6-1.4-2.6-4c0-2.6,1.1-4.1,2.7-4.1c1.6,0,2.6,1.5,2.6,3.9
	C102.4,99.6,101.4,101.1,99.7,101.1z M119,86.5h-1v-6.8h0l-1.4,0.7l-0.2-0.8l1.7-0.9h0.9V86.5z M124.3,86.7c-1.5,0-2.6-1.4-2.6-4
	c0-2.6,1.1-4.1,2.7-4.1c1.6,0,2.6,1.5,2.6,3.9C127,85.2,126,86.7,124.3,86.7z"/>
<path d="M82.9,111.4c0-1.9-0.5-3.2-1.6-3.2c-0.9,0-1.6,1.1-1.6,3.3c0,1.5,0.3,2.5,0.9,2.9l2.1-1.1C82.8,112.8,82.9,112.2,82.9,111.4
	z"/>
<path d="M124.4,79.4c-0.9,0-1.6,1.1-1.6,3.3c0,2,0.6,3.2,1.6,3.2c1.1,0,1.6-1.3,1.6-3.3C126,80.7,125.5,79.4,124.4,79.4z"/>
<path d="M26,50.6V51l1,0.4C26.8,50.9,26.4,50.7,26,50.6z"/>
<path d="M38.2,122.6c-0.9,0-1.6,1.1-1.6,3.3c0,2,0.6,3.2,1.6,3.2c1.1,0,1.6-1.3,1.6-3.2C39.8,123.9,39.3,122.6,38.2,122.6z"/>
<path d="M62.8,122.6c-0.7,0-1.2,0.6-1.5,1.9l2.5-1.3C63.6,122.8,63.2,122.6,62.8,122.6z"/>
<path d="M27.5,126.2L26,127v2C26.9,128.9,27.4,127.9,27.5,126.2z"/>
<path d="M50.5,122.6c-0.9,0-1.6,1.1-1.6,3.3c0,2,0.6,3.2,1.6,3.2c1.1,0,1.6-1.3,1.6-3.2C52.1,123.9,51.6,122.6,50.5,122.6z"/>
<path d="M99.8,93.8c-0.9,0-1.6,1.1-1.6,3.3c0,2,0.6,3.2,1.6,3.2c1.1,0,1.6-1.3,1.6-3.2C101.3,95.1,100.8,93.8,99.8,93.8z"/>
<path d="M105.9,65c-0.9,0-1.6,1.1-1.6,3.3c0,2,0.6,3.2,1.6,3.2c1.1,0,1.6-1.3,1.6-3.2C107.5,66.3,107,65,105.9,65z"/>
<path d="M50.5,50.6c-0.9,0-1.6,1.1-1.6,3.3c0,2,0.6,3.2,1.6,3.2c1.1,0,1.6-1.3,1.6-3.2C52.1,51.9,51.6,50.6,50.5,50.6z"/>
<path d="M38.2,36.2c-0.9,0-1.6,1.1-1.6,3.3c0,2,0.6,3.2,1.6,3.2c1.1,0,1.6-1.3,1.6-3.3C39.8,37.5,39.3,36.2,38.2,36.2z"/>
<path d="M44.4,36.2c-0.9,0-1.6,1.1-1.6,3.3c0,2,0.6,3.2,1.6,3.2c1.1,0,1.6-1.3,1.6-3.3C45.9,37.5,45.4,36.2,44.4,36.2z"/>
<path d="M62.8,50.6c-0.9,0-1.6,1.1-1.6,3.3c0,2,0.6,3.2,1.6,3.2c1.1,0,1.6-1.3,1.6-3.2C64.4,51.9,63.9,50.6,62.8,50.6z"/>
<path d="M93.6,65c-0.9,0-1.6,1.1-1.6,3.3c0,2,0.6,3.2,1.6,3.2c1.1,0,1.6-1.3,1.6-3.2C95.2,66.3,94.7,65,93.6,65z"/>
<path d="M75.1,50.6c-0.9,0-1.6,1.1-1.6,3.3c0,2,0.6,3.2,1.6,3.2c1.1,0,1.6-1.3,1.6-3.2C76.7,51.9,76.2,50.6,75.1,50.6z"/>
<path d="M110.5,68.3c0,2,0.6,3.2,1.6,3.2c1.1,0,1.6-1.3,1.6-3.2c0-1-0.1-1.8-0.4-2.3l-1.5-0.8C111,65.3,110.5,66.4,110.5,68.3z"/>
<path d="M32,28.3c1.1,0,1.6-1.3,1.6-3.2c0,0,0-0.1,0-0.1l-3-1.5c-0.1,0.5-0.2,1-0.2,1.7C30.4,27.1,31.1,28.3,32,28.3z"/>
<path d="M81.3,100.3c1,0,1.5-1,1.6-2.7L80,99.1C80.3,99.8,80.7,100.3,81.3,100.3z"/>
<path d="M85.8,97.1c0,2,0.6,3.2,1.6,3.2c1.1,0,1.6-1.3,1.6-3.2c0-1-0.1-1.8-0.4-2.4L85.9,96C85.9,96.3,85.8,96.7,85.8,97.1z"/>
<path d="M38.2,28.3c0.4,0,0.7-0.2,1-0.5l-2.4-1.2C37,27.6,37.5,28.3,38.2,28.3z"/>
<path d="M112.1,85.9c1.1,0,1.6-1.3,1.6-3.3c0-1.9-0.5-3.2-1.6-3.2c-0.7,0-1.2,0.6-1.4,1.7L113,82l-2.5,1.3
	C110.6,84.9,111.2,85.9,112.1,85.9z"/>
<polygon points="26.3,21.1 26,21 26,21.1 "/>
<path d="M85.8,53.9c0,2,0.6,3.2,1.6,3.2c1.1,0,1.6-1.3,1.6-3.2c0-0.1,0-0.3,0-0.4l-2.9-1.5C85.9,52.4,85.8,53.1,85.8,53.9z"/>
<path d="M62.8,42.7c0.8,0,1.3-0.7,1.5-2l-3.1-1.6c0,0.1,0,0.2,0,0.4C61.2,41.5,61.8,42.7,62.8,42.7z"/>
<path d="M55.1,39.5c0,2,0.6,3.2,1.6,3.2c1.1,0,1.6-1.3,1.6-3.3c0-0.8-0.1-1.4-0.3-2l-2-1C55.4,36.9,55.1,37.9,55.1,39.5z"/>
<path d="M27.5,39.4c0-1.8-0.5-3.1-1.5-3.2v6.4C27,42.5,27.5,41.3,27.5,39.4z"/>
<path d="M39.8,53.8c0-1.9-0.5-3.2-1.6-3.2c-0.9,0-1.6,1.1-1.6,3.3c0,0.3,0,0.6,0.1,0.9l2.9,1C39.7,55.3,39.8,54.6,39.8,53.8z"/>
<path d="M82.9,68.2c0-1.9-0.5-3.2-1.6-3.2c-0.9,0-1.6,1.1-1.6,3.3c0,0.8,0.1,1.4,0.3,1.9l2.2,0.8C82.6,70.5,82.9,69.5,82.9,68.2z"/>
<path d="M51.7,113.7l-1.7,0.9c0.1,0.1,0.3,0.1,0.4,0.1C51.1,114.7,51.5,114.3,51.7,113.7z"/>
<path d="M61.2,111.5c0,2,0.6,3.2,1.6,3.2c1.1,0,1.6-1.3,1.6-3.3c0-1.9-0.5-3.2-1.6-3.2C61.9,108.2,61.2,109.4,61.2,111.5z"/>
<path d="M26,137v6l1.1-0.6c0.2-0.6,0.3-1.3,0.3-2.2C27.5,138.4,27,137.1,26,137z"/>
<path d="M69,65c-0.5,0-0.9,0.3-1.2,0.9l2.6,0.9C70.3,65.7,69.8,65,69,65z"/>
<path d="M259.8,85.9c1.1,0,1.6-1.3,1.6-3.3c0-1.9-0.5-3.2-1.6-3.2c-0.9,0-1.6,1.1-1.6,3.3C258.2,84.7,258.8,85.9,259.8,85.9z"/>
<path d="M149,36.2c-0.9,0-1.6,1.1-1.6,3.3c0,2,0.6,3.2,1.6,3.2c1.1,0,1.6-1.3,1.6-3.3C150.6,37.5,150.1,36.2,149,36.2z"/>
<path d="M149,21.8c-0.9,0-1.6,1.1-1.6,3.3c0,2,0.6,3.2,1.6,3.2c1.1,0,1.6-1.3,1.6-3.2C150.6,23.1,150.1,21.8,149,21.8z"/>
<path d="M210.5,114.7c1.1,0,1.6-1.3,1.6-3.3c0-1.9-0.5-3.2-1.6-3.2c-0.9,0-1.6,1.1-1.6,3.3C209,113.5,209.6,114.7,210.5,114.7z"/>
<path d="M229,100.3c1.1,0,1.6-1.3,1.6-3.2c0-1.9-0.5-3.2-1.6-3.2c-0.9,0-1.6,1.1-1.6,3.3C227.4,99.1,228.1,100.3,229,100.3z"/>
<path d="M198.2,114.7c1.1,0,1.6-1.3,1.6-3.3c0-1.9-0.5-3.2-1.6-3.2c-0.9,0-1.6,1.1-1.6,3.3C196.7,113.5,197.3,114.7,198.2,114.7z"/>
<path d="M165.9,25.1c0,2,0.6,3.2,1.6,3.2c1.1,0,1.6-1.3,1.6-3.2c0,0,0-0.1,0-0.1l-3-1.5C165.9,23.9,165.9,24.4,165.9,25.1z"/>
<path d="M198.2,42.7c1,0,1.5-1.1,1.6-2.9l-3.1-1.5c-0.1,0.4-0.1,0.7-0.1,1.2C196.7,41.5,197.3,42.7,198.2,42.7z"/>
<path d="M179.8,129.1c1.1,0,1.6-1.3,1.6-3.2c0-1.9-0.5-3.2-1.6-3.2c-0.9,0-1.6,1.1-1.6,3.3C178.2,127.9,178.8,129.1,179.8,129.1z"/>
<path d="M190.5,39.5c0,2,0.6,3.2,1.6,3.2c1.1,0,1.6-1.3,1.6-3.3c0-1.9-0.5-3.2-1.6-3.2C191.2,36.2,190.5,37.4,190.5,39.5z"/>
<path d="M198.2,50.6c-0.9,0-1.6,1.1-1.6,3.3c0,2,0.6,3.2,1.6,3.2c1.1,0,1.6-1.3,1.6-3.2C199.8,51.9,199.3,50.6,198.2,50.6z"/>
<path d="M173.6,36.2c-0.9,0-1.6,1.1-1.6,3.3c0,2,0.6,3.2,1.6,3.2c1.1,0,1.6-1.3,1.6-3.3C175.2,37.5,174.7,36.2,173.6,36.2z"/>
<path d="M204.4,50.6c-0.9,0-1.6,1.1-1.6,3.3c0,2,0.6,3.2,1.6,3.2c1.1,0,1.6-1.3,1.6-3.2C206,51.9,205.5,50.6,204.4,50.6z"/>
<path d="M216.7,50.6c-0.9,0-1.6,1.1-1.6,3.3c0,2,0.6,3.2,1.6,3.2c1.1,0,1.6-1.3,1.6-3.2C218.3,51.9,217.8,50.6,216.7,50.6z"/>
<path d="M185.9,50.6c-0.9,0-1.6,1.1-1.6,3.3c0,2,0.6,3.2,1.6,3.2c1.1,0,1.6-1.3,1.6-3.2C187.5,51.9,187,50.6,185.9,50.6z"/>
<path d="M235.2,100.3c1.1,0,1.6-1.3,1.6-3.2c0-1.9-0.5-3.2-1.6-3.2c-0.9,0-1.6,1.1-1.6,3.3C233.6,99.1,234.2,100.3,235.2,100.3z"/>
<path d="M161.3,36.2c-0.9,0-1.6,1.1-1.6,3.3c0,2,0.6,3.2,1.6,3.2c1.1,0,1.6-1.3,1.6-3.3C162.9,37.5,162.4,36.2,161.3,36.2z"/>
<path d="M241.3,65c-0.9,0-1.6,1.1-1.6,3.3c0,2,0.6,3.2,1.6,3.2c1.1,0,1.6-1.3,1.6-3.2C242.9,66.3,242.4,65,241.3,65z"/>
<path d="M229,65c-0.9,0-1.6,1.1-1.6,3.3c0,2,0.6,3.2,1.6,3.2c1.1,0,1.6-1.3,1.6-3.2C230.6,66.3,230.1,65,229,65z"/>
<path d="M185.9,36.2c-0.9,0-1.6,1.1-1.6,3.3c0,2,0.6,3.2,1.6,3.2c1.1,0,1.6-1.3,1.6-3.3C187.5,37.5,187,36.2,185.9,36.2z"/>
<path d="M221.3,53.9c0,2,0.6,3.2,1.6,3.2c1.1,0,1.6-1.3,1.6-3.2c0-0.9-0.1-1.7-0.3-2.2l-1.7-0.8C221.7,51.1,221.3,52.1,221.3,53.9z"
	/>
<path d="M247.5,79.4c-0.6,0-1.1,0.5-1.4,1.5l2.9,1C248.9,80.4,248.4,79.4,247.5,79.4z"/>
<path d="M247.5,85.9c1.1,0,1.6-1.3,1.6-3.3c0-0.2,0-0.3,0-0.5l-3.1,1.5C246.1,85.1,246.7,85.9,247.5,85.9z"/>
<path d="M242.1,85.5l-0.7,0.3C241.7,85.8,242,85.7,242.1,85.5z"/>
<path d="M253.7,93.8c-0.9,0-1.6,1.1-1.6,3.3c0,0.3,0,0.5,0,0.8l3.1-1.5C255.1,94.8,254.6,93.8,253.7,93.8z"/>
<path d="M216.7,100.3c1.1,0,1.6-1.2,1.6-3.1l-3,1.5C215.5,99.7,216,100.3,216.7,100.3z"/>
<path d="M192.1,122.6c-0.9,0-1.6,1.1-1.6,3.3c0,1,0.1,1.7,0.4,2.3l2.7-1.4c0-0.3,0.1-0.6,0.1-1C193.7,123.9,193.2,122.6,192.1,122.6
	z"/>
<path d="M212.1,68.2c0-1.9-0.5-3.2-1.6-3.2c-0.9,0-1.6,1.1-1.6,3.3c0,0.1,0,0.1,0,0.1l3.1,1C212.1,69.1,212.1,68.7,212.1,68.2z"/>
<path d="M161.3,137c-0.9,0-1.6,1.1-1.6,3.3c0,1.4,0.3,2.4,0.8,2.9l2.2-1.1c0.1-0.5,0.2-1.1,0.2-1.9C162.9,138.3,162.4,137,161.3,137
	z"/>
<path d="M229,108.2c-0.7,0-1.2,0.6-1.5,1.8l2.5-1.2C229.8,108.4,229.5,108.2,229,108.2z"/>
<path d="M252.1,68.3c0,2,0.6,3.2,1.6,3.2c1.1,0,1.6-1.3,1.6-3.2c0-0.6-0.1-1.1-0.2-1.6l-2.3-1.1C252.3,66,252.1,66.9,252.1,68.3z"/>
<path d="M222.9,108.2c-0.9,0-1.6,1.1-1.6,3.3c0,0.6,0.1,1.1,0.2,1.6l3-1.5c0,0,0-0.1,0-0.1C224.5,109.5,224,108.2,222.9,108.2z"/>
<path d="M249.1,97c0-1.9-0.5-3.2-1.6-3.2c-0.9,0-1.6,1.1-1.6,3.3c0,1.9,0.6,3,1.4,3.2l1.2-0.6C248.9,99.1,249.1,98.2,249.1,97z"/>
<path d="M155.1,129.1c0.8,0,1.3-0.7,1.5-1.8l-2.5,1.2C154.4,128.8,154.7,129.1,155.1,129.1z"/>
<path d="M158.7,140.3c0-2.6,1.1-4.1,2.7-4.1c1.6,0,2.6,1.5,2.6,3.9c0,0.5,0,0.9-0.1,1.3l3.4-1.7v-2.5h0l-1.4,0.7l-0.2-0.8l1.7-0.9
	h0.9v3l3.2-1.6c0.5-1,1.3-1.5,2.2-1.5c0.2,0,0.5,0,0.7,0.1l15.7-7.8c-0.4-0.7-0.6-1.6-0.6-2.7c0-2.6,1.1-4.1,2.7-4.1
	c1.6,0,2.6,1.5,2.6,3.9c0,0.2,0,0.3,0,0.5l3.3-1.6v-1.7h0l-1.4,0.7l-0.2-0.8l1.7-0.9h0.9v2.2l17.7-8.8h-0.3v-6.8h0l-1.4,0.7
	l-0.2-0.8l1.7-0.9h0.9v7.4l3-1.5c-0.2-0.6-0.3-1.2-0.3-2c0-2.6,1.1-4.1,2.7-4.1c1.6,0,2.5,1.3,2.6,3.6l0.9-0.5
	c0.2-2,1.3-3.2,2.7-3.2c0.8,0,1.4,0.3,1.8,0.9l15.4-7.6c-0.9-0.6-1.4-1.8-1.4-3.7c0-2.6,1.1-4.1,2.7-4.1c1.6,0,2.6,1.5,2.6,3.9
	c0,0.8-0.1,1.4-0.3,2l1.3-0.6c-0.1-0.4-0.1-0.8-0.1-1.3c0-2.6,1.1-4.1,2.7-4.1c1.4,0,2.2,1,2.5,2.8l3.3-1.7v-0.1h0l-1.4,0.7
	l-0.2-0.8l1.7-0.9h0.9v0.5l10.1-5v-2.6c-0.7-0.6-1.2-1.8-1.2-3.5c0-1.7,0.5-2.8,1.2-3.5v-5l-4.1-2c-0.2,0.1-0.4,0.1-0.7,0.1
	c-0.9,0-1.6-0.5-2-1.4l-3.3-1.6v2.9h-1v-3.4l-3.3-1.6c0,0.3,0.1,0.6,0.1,1c0,2.7-1,4.1-2.7,4.1c-1.5,0-2.6-1.4-2.6-4
	c0-1.4,0.3-2.5,0.9-3.2l-16-7.7v0.4h-1v-0.9l-5.1-2.5v3.4h-1v-3.9l-3.4-1.7c0.1,0.5,0.2,1,0.2,1.6c0,2.7-1,4.1-2.7,4.1
	c-1.5,0-2.6-1.4-2.6-4c0-1.7,0.5-2.9,1.3-3.5l-16.3-7.9v0.9h-1v-1.4l-3.3-1.6c-0.2,2.1-1.2,3.2-2.7,3.2c-1.5,0-2.6-1.4-2.6-4
	c0-0.6,0.1-1.1,0.2-1.6l-1.4-0.7c0.2,0.6,0.3,1.3,0.3,2.2c0,2.7-1,4.1-2.7,4.1c-1.5,0-2.6-1.4-2.6-4c0-2.1,0.7-3.4,1.8-3.8
	l-16.8-8.2v1.5h-1v-2l-3.3-1.6c-0.1,2.4-1.1,3.7-2.7,3.7c-1.5,0-2.6-1.4-2.6-4c0-0.8,0.1-1.5,0.3-2.1l-3.1-1.5v7.5h-1v-6.8h0
	l-1.4,0.7l-0.2-0.8l1.7-0.9h0.2l-15-7.3v33.5l7.9,2.7c0.3-0.1,0.6-0.2,1-0.2c0.9,0,1.6,0.4,2,1.2l1.8,0.6c0.5-1.2,1.3-1.8,2.3-1.8
	c1.5,0,2.4,1.3,2.6,3.5l3.3,1.1v-3.5h0l-1.4,0.7l-0.2-0.8l1.7-0.9h0.9v4.8l3,1c-0.2-0.5-0.2-1.1-0.2-1.9c0-2.6,1.1-4.1,2.7-4.1
	c1.6,0,2.6,1.5,2.6,3.9c0,1.5-0.3,2.7-1,3.3l22.3,7.5l0.5-0.3h0.9v0.7l3.1,1c0.4-1.2,1.3-1.9,2.4-1.9c1.6,0,2.5,1.3,2.6,3.6l0.9,0.3
	c0.1-2.5,1.2-3.9,2.7-3.9c1.6,0,2.6,1.5,2.6,3.9c0,0.6-0.1,1.2-0.2,1.6l3.4,1.2v-5.6h0l-1.4,0.7l-0.2-0.8l1.7-0.9h0.9v6.9l22.7,7.6
	c0.3-0.2,0.7-0.3,1.2-0.3c1,0,1.7,0.5,2.1,1.4l1.7,0.6c0.4-1.3,1.3-2,2.4-2c1.6,0,2.6,1.5,2.6,3.9c0,2.7-1,4.1-2.7,4.1
	c-1.2,0-2.1-0.9-2.4-2.6l-1.3,0.7c-0.4,1.2-1.2,1.9-2.4,1.9c-0.4,0-0.7-0.1-1-0.2l-16.6,8.1v6.4h-1V95l-3.3,1.6c0,0.1,0,0.2,0,0.3
	c0,2.7-1,4.1-2.7,4.1c-1.1,0-1.9-0.7-2.3-2l-1.9,0.9c-0.5,0.7-1.1,1.1-2,1.1c-0.1,0-0.1,0-0.2,0l-17.5,8.5v5.8h-1v-5.3l-3.3,1.6
	c-0.1,2.4-1,3.8-2.7,3.8c-0.9,0-1.6-0.5-2.1-1.5l-16.1,7.8c1.5,0.1,2.4,1.5,2.4,3.9c0,2.7-1,4.1-2.7,4.1c-1.5,0-2.6-1.4-2.6-4
	c0-1.3,0.3-2.3,0.7-3l-3.5,1.7v5.1h-1v-4.7l-3.3,1.6c-0.2,2-1.2,3.2-2.7,3.2c-0.7,0-1.4-0.3-1.8-1l-6.9,3.4v17.9l13.3-6.6
	C159,142.9,158.7,141.8,158.7,140.3z M265.8,78.7h0.9v7.8h-1v-6.8h0l-1.4,0.7l-0.2-0.8L265.8,78.7z M259.9,78.6
	c1.6,0,2.6,1.5,2.6,3.9c0,2.7-1,4.1-2.7,4.1c-1.5,0-2.6-1.4-2.6-4C257.2,80.1,258.3,78.6,259.9,78.6z M253.5,78.7h0.9v7.8h-1v-6.8h0
	l-1.4,0.7l-0.2-0.8L253.5,78.7z M148.9,43.5c-1.5,0-2.6-1.4-2.6-4c0-2.6,1.1-4.1,2.7-4.1c1.6,0,2.6,1.5,2.6,3.9
	C151.6,42,150.7,43.5,148.9,43.5z M148.9,29.1c-1.5,0-2.6-1.4-2.6-4c0-2.6,1.1-4.1,2.7-4.1c1.6,0,2.6,1.5,2.6,3.9
	C151.6,27.6,150.7,29.1,148.9,29.1z M155.9,43.3h-1v-6.8h0l-1.4,0.7l-0.2-0.8l1.7-0.9h0.9V43.3z M155.9,28.9h-1v-6.8h0l-1.4,0.7
	l-0.2-0.8l1.7-0.9h0.9V28.9z M161.2,43.5c-1.5,0-2.6-1.4-2.6-4c0-2.6,1.1-4.1,2.7-4.1c1.6,0,2.6,1.5,2.6,3.9
	C164,42,163,43.5,161.2,43.5z M168.2,43.3h-1v-6.8h0l-1.4,0.7l-0.2-0.8l1.7-0.9h0.9V43.3z M173.6,43.5c-1.5,0-2.6-1.4-2.6-4
	c0-2.6,1.1-4.1,2.7-4.1c1.6,0,2.6,1.5,2.6,3.9C176.3,42,175.3,43.5,173.6,43.5z M180.5,57.7h-1v-6.8h0l-1.4,0.7l-0.2-0.8l1.7-0.9
	h0.9V57.7z M180.5,43.3h-1v-6.8h0l-1.4,0.7l-0.2-0.8l1.7-0.9h0.9V43.3z M185.9,57.9c-1.5,0-2.6-1.4-2.6-4c0-2.6,1.1-4.1,2.7-4.1
	c1.6,0,2.6,1.5,2.6,3.9C188.6,56.4,187.6,57.9,185.9,57.9z M185.9,43.5c-1.5,0-2.6-1.4-2.6-4c0-2.6,1.1-4.1,2.7-4.1
	c1.6,0,2.6,1.5,2.6,3.9C188.6,42,187.6,43.5,185.9,43.5z M192.9,57.7h-1v-6.8h0l-1.4,0.7l-0.2-0.8l1.7-0.9h0.9V57.7z M198.2,57.9
	c-1.5,0-2.6-1.4-2.6-4c0-2.6,1.1-4.1,2.7-4.1c1.6,0,2.6,1.5,2.6,3.9C200.9,56.4,199.9,57.9,198.2,57.9z M204.3,57.9
	c-1.5,0-2.6-1.4-2.6-4c0-2.6,1.1-4.1,2.7-4.1c1.6,0,2.6,1.5,2.6,3.9C207,56.4,206.1,57.9,204.3,57.9z M211.3,57.7h-1v-6.8h0
	l-1.4,0.7l-0.2-0.8l1.7-0.9h0.9V57.7z M216.6,57.9c-1.5,0-2.6-1.4-2.6-4c0-2.6,1.1-4.1,2.7-4.1c1.6,0,2.6,1.5,2.6,3.9
	C219.4,56.4,218.4,57.9,216.6,57.9z M223.6,72.1h-1v-6.8h0l-1.4,0.7l-0.2-0.8l1.7-0.9h0.9V72.1z M229,72.3c-1.5,0-2.6-1.4-2.6-4
	c0-2.6,1.1-4.1,2.7-4.1c1.6,0,2.6,1.5,2.6,3.9C231.7,70.8,230.7,72.3,229,72.3z M236,72.1h-1v-6.8h0l-1.4,0.7l-0.2-0.8l1.7-0.9h0.9
	V72.1z M241.3,72.3c-1.5,0-2.6-1.4-2.6-4c0-2.6,1.1-4.1,2.7-4.1c1.6,0,2.6,1.5,2.6,3.9C244,70.8,243,72.3,241.3,72.3z M248.3,72.1
	h-1v-6.8h0l-1.4,0.7l-0.2-0.8l1.7-0.9h0.9V72.1z M241.2,93.1h0.9v7.8h-1v-6.8h0l-1.4,0.7l-0.2-0.8L241.2,93.1z M235.2,93
	c1.6,0,2.6,1.5,2.6,3.9c0,2.7-1,4.1-2.7,4.1c-1.5,0-2.6-1.4-2.6-4C232.5,94.5,233.7,93,235.2,93z M229.1,93c1.6,0,2.6,1.5,2.6,3.9
	c0,2.7-1,4.1-2.7,4.1c-1.5,0-2.6-1.4-2.6-4C226.4,94.5,227.5,93,229.1,93z M210.6,107.4c1.6,0,2.6,1.5,2.6,3.9c0,2.7-1,4.1-2.7,4.1
	c-1.5,0-2.6-1.4-2.6-4C207.9,108.9,209,107.4,210.6,107.4z M204.3,107.5h0.9v7.8h-1v-6.8h0l-1.4,0.7l-0.2-0.8L204.3,107.5z
	 M198.3,107.4c1.6,0,2.6,1.5,2.6,3.9c0,2.7-1,4.1-2.7,4.1c-1.5,0-2.6-1.4-2.6-4C195.6,108.9,196.7,107.4,198.3,107.4z M185.8,121.9
	h0.9v7.8h-1v-6.8h0l-1.4,0.7l-0.2-0.8L185.8,121.9z M179.8,121.8c1.6,0,2.6,1.5,2.6,3.9c0,2.7-1,4.1-2.7,4.1c-1.5,0-2.6-1.4-2.6-4
	C177.1,123.3,178.3,121.8,179.8,121.8z M173.5,121.9h0.9v7.8h-1v-6.8h0l-1.4,0.7l-0.2-0.8L173.5,121.9z M149.8,144.1h-1v-6.8h0
	l-1.4,0.7l-0.2-0.8l1.7-0.9h0.9V144.1z M155.1,144.3c-1.5,0-2.6-1.4-2.6-4c0-2.6,1.1-4.1,2.7-4.1c1.6,0,2.6,1.5,2.6,3.9
	C157.8,142.8,156.8,144.3,155.1,144.3z"/>
<path d="M161.3,50.6c-0.6,0-1.1,0.5-1.3,1.3l2.9,1C162.7,51.5,162.2,50.6,161.3,50.6z"/>
<path d="M270.7,84.1v-2.9c-0.1,0.4-0.1,0.9-0.1,1.5C270.5,83.2,270.6,83.7,270.7,84.1z"/>
<path d="M204.4,65c-0.6,0-1.1,0.5-1.4,1.4l2.9,1C205.8,66,205.3,65,204.4,65z"/>
<path d="M167.5,129.1c1.1,0,1.6-1.3,1.6-3.2c0-1.9-0.5-3.2-1.6-3.2c-0.9,0-1.6,1.1-1.6,3.3C165.9,127.9,166.5,129.1,167.5,129.1z"/>
<path d="M155.2,137c-0.9,0-1.6,1.1-1.6,3.3c0,2,0.6,3.2,1.6,3.2c1.1,0,1.6-1.3,1.6-3.2C156.7,138.3,156.2,137,155.2,137z"/>
<path d="M185.9,114.7c0.9,0,1.4-0.9,1.6-2.5l-2.8,1.4C184.9,114.3,185.4,114.7,185.9,114.7z"/>
<path d="M175.2,53.8c0-1.9-0.5-3.2-1.6-3.2c-0.9,0-1.6,1.1-1.6,3.3c0,1,0.1,1.7,0.4,2.3l1.9,0.7C174.9,56.3,175.2,55.3,175.2,53.8z"
	/>
<path d="M339.8,50.6c-0.9,0-1.6,1.1-1.6,3.3c0,2,0.6,3.2,1.6,3.2c1.1,0,1.6-1.3,1.6-3.2C341.4,51.9,340.9,50.6,339.8,50.6z"/>
<path d="M309,129.1c1.1,0,1.6-1.3,1.6-3.2c0-1.9-0.5-3.2-1.6-3.2c-0.9,0-1.6,1.1-1.6,3.3C307.5,127.9,308.1,129.1,309,129.1z"/>
<path d="M327.5,50.6c-0.9,0-1.6,1.1-1.6,3.3c0,2,0.6,3.2,1.6,3.2c1.1,0,1.6-1.3,1.6-3.2C329.1,51.9,328.6,50.6,327.5,50.6z"/>
<path d="M358.3,65c-0.9,0-1.6,1.1-1.6,3.3c0,2,0.6,3.2,1.6,3.2c1.1,0,1.6-1.3,1.6-3.2C359.9,66.3,359.4,65,358.3,65z"/>
<path d="M339.8,114.7c1.1,0,1.6-1.3,1.6-3.3c0-1.9-0.5-3.2-1.6-3.2c-0.9,0-1.6,1.1-1.6,3.3C338.2,113.5,338.9,114.7,339.8,114.7z"/>
<path d="M364.4,100.3c1.1,0,1.6-1.3,1.6-3.2c0-1.9-0.5-3.2-1.6-3.2c-0.9,0-1.6,1.1-1.6,3.3C362.9,99.1,363.5,100.3,364.4,100.3z"/>
<path d="M364.5,65c-0.9,0-1.6,1.1-1.6,3.3c0,2,0.6,3.2,1.6,3.2c1.1,0,1.6-1.3,1.6-3.2C366,66.3,365.5,65,364.5,65z"/>
<path d="M315.2,50.6c-0.9,0-1.6,1.1-1.6,3.3c0,2,0.6,3.2,1.6,3.2c1.1,0,1.6-1.3,1.6-3.2C316.8,51.9,316.3,50.6,315.2,50.6z"/>
<path d="M309.1,50.6c-0.9,0-1.6,1.1-1.6,3.3c0,2,0.6,3.2,1.6,3.2c1.1,0,1.6-1.3,1.6-3.2C310.6,51.9,310.1,50.6,309.1,50.6z"/>
<path d="M344.4,53.9c0,2,0.6,3.2,1.6,3.2c1.1,0,1.6-1.3,1.6-3.2c0-1.1-0.2-2-0.6-2.6l-1.1-0.6C345,50.7,344.4,51.8,344.4,53.9z"/>
<path d="M327.5,42.7c0.4,0,0.8-0.2,1-0.6l-2.5-1.2C326.3,42,326.8,42.7,327.5,42.7z"/>
<path d="M375.2,68.3c0,2,0.6,3.2,1.6,3.2c1.1,0,1.6-1.3,1.6-3.2c0-0.6,0-1.1-0.1-1.5l-2.4-1.2C375.4,66,375.2,67,375.2,68.3z"/>
<path d="M358.3,57.1c0.1,0,0.3,0,0.4-0.1l-1.5-0.8C357.4,56.8,357.8,57.1,358.3,57.1z"/>
<path d="M302.9,36.2c-0.9,0-1.6,1.1-1.6,3.3c0,2,0.6,3.2,1.6,3.2c1.1,0,1.6-1.3,1.6-3.3C304.5,37.5,304,36.2,302.9,36.2z"/>
<path d="M319.8,39.5c0,2,0.6,3.2,1.6,3.2c1.1,0,1.6-1.3,1.6-3.3c0,0,0-0.1,0-0.1l-3-1.5C319.8,38.3,319.8,38.8,319.8,39.5z"/>
<path d="M389.1,85.9c1.1,0,1.6-1.3,1.6-3.3c0-1.9-0.5-3.2-1.6-3.2c-0.9,0-1.6,1.1-1.6,3.3C387.5,84.7,388.1,85.9,389.1,85.9z"/>
<path d="M295.1,125.9c0,2,0.6,3.2,1.6,3.2c1.1,0,1.6-1.3,1.6-3.2c0-1.9-0.5-3.1-1.5-3.2l-1,0.5C295.4,123.6,295.1,124.6,295.1,125.9
	z"/>
<path d="M315.2,114.7c0.8,0,1.3-0.7,1.5-2l-2.6,1.3C314.4,114.4,314.8,114.7,315.2,114.7z"/>
<path d="M350.5,97.1c0,2,0.6,3.2,1.6,3.2c1.1,0,1.6-1.3,1.6-3.2c0-1.1-0.2-2-0.5-2.5l-2.5,1.3C350.6,96.1,350.5,96.6,350.5,97.1z"/>
<path d="M296.7,50.6c-0.9,0-1.5,1-1.6,2.8l3.1,1.1c0-0.2,0-0.5,0-0.7C298.3,51.9,297.8,50.6,296.7,50.6z"/>
<path d="M296.5,137.3L296.5,137.3l-1.4,0.7l-0.2-0.8l1.7-0.9h0.9v1l17.4-8.8v-5.6h0l-1.4,0.7l-0.2-0.8l1.7-0.9h0.9v6l2.8-1.4
	c0-0.2,0-0.5,0-0.7c0-2.6,1.1-4.1,2.7-4.1c1.2,0,2,0.8,2.4,2.2l1.9-1l0-0.2l1.7-0.9h0.5l15.9-8c-0.3-0.6-0.4-1.5-0.5-2.5
	c0-2.6,1.1-4.1,2.7-4.1c1.6,0,2.6,1.5,2.6,3.9c0,0,0,0.1,0,0.1l3.3-1.7v-1.3h0l-1.4,0.7l-0.2-0.8l1.7-0.9h0.9v1.8l17.4-8.8v-6.4h0
	l-1.4,0.7l-0.2-0.8l1.7-0.9h0.9v6.8l2.9-1.5c-0.1-0.4-0.1-0.9-0.2-1.4c0-2.6,1.1-4.1,2.7-4.1c1.4,0,2.3,1.1,2.5,2.9l3.3-1.7v-0.1h0
	l-1.4,0.7l-0.2-0.8l1.7-0.9h0.9v0.6l12.1-6.1v-1.1H395v-6.8h0l-1.4,0.7l-0.2-0.8l1.7-0.9h0.6v-3.3l-6.4-3.2c-0.1,0-0.2,0-0.4,0
	c-0.8,0-1.5-0.4-1.9-1.2l-3.4-1.7v2.7h-1v-3.2l-3.3-1.6c0,0.3,0,0.6,0,0.9c0,2.7-1,4.1-2.7,4.1c-1.5,0-2.6-1.4-2.6-4
	c0-1.4,0.3-2.5,0.9-3.2l-15.4-7.7c-0.4,0.3-0.8,0.4-1.4,0.4c-1.1,0-2-0.8-2.4-2.3l-2.9-1.5v3.6h-1v-4.1l-3.5-1.7
	c0.1,0.5,0.2,1.2,0.2,1.9c0,2.7-1,4.1-2.7,4.1c-1.5,0-2.6-1.4-2.6-4c0-1.9,0.6-3.2,1.5-3.7l-15.5-7.7c-0.5,0.7-1.1,1-2,1
	c-1.4,0-2.3-1.1-2.5-3.2l-0.9-0.5c-0.1,2.4-1.1,3.7-2.7,3.7c-1.5,0-2.6-1.4-2.6-4c0-0.8,0.1-1.5,0.3-2.1l-3.1-1.5v7.5h-1v-6.8h0
	l-1.4,0.7l-0.2-0.8l1.7-0.9h0.4L302.3,29c-0.3-0.1-0.5-0.2-0.7-0.3l-4.1-2v2.3h-1v-2.8l-3.2-1.6v28.3l0.9,0.3
	c0.2-2.1,1.2-3.3,2.7-3.3c1.6,0,2.6,1.5,2.6,3.9c0,0.4,0,0.8-0.1,1.1l3.3,1.1v-5.1h0l-1.4,0.7l-0.2-0.8l1.7-0.9h0.9v6.4l23.2,8
	c0.2-0.1,0.5-0.1,0.7-0.1c0.8,0,1.5,0.4,1.9,1l3.9,1.4v-1.3h0l-1.4,0.7l-0.2-0.8l1.7-0.9h0.9V67l2.8,0.9c0.1-2.4,1.2-3.7,2.7-3.7
	c1.6,0,2.6,1.5,2.6,3.9c0,0.6-0.1,1.1-0.1,1.5l1.2,0.4c-0.1-0.5-0.2-1.1-0.2-1.8c0-2.6,1.1-4.1,2.7-4.1c1.6,0,2.6,1.5,2.6,3.9
	c0,1.5-0.3,2.7-1,3.3l21.8,7.5c0.4-0.2,0.8-0.4,1.2-0.4c1,0,1.7,0.6,2.2,1.5l1.6,0.5c0.4-1.4,1.3-2.1,2.4-2.1c1.6,0,2.6,1.5,2.6,3.9
	c0,2.7-1,4.1-2.7,4.1c-1.2,0-2.1-1-2.5-2.7l-1.3,0.6c-0.4,1.3-1.2,2.1-2.4,2.1c-0.4,0-0.8-0.1-1.1-0.3L354.1,94
	c0.5,0.7,0.7,1.7,0.7,2.9c0,2.7-1,4.1-2.7,4.1c-1.5,0-2.6-1.4-2.6-4c0-0.3,0-0.5,0-0.8l-2.8,1.4v3.3h-1v-2.7l-4.2,2.1
	c-0.4,0.4-0.9,0.7-1.5,0.7l-12.9,6.4c0.1,0,0.3,0,0.4,0c1.6,0,2.6,1.5,2.6,3.9c0,2.7-1,4.1-2.7,4.1c-1.5,0-2.6-1.4-2.6-4
	c0-1.6,0.4-2.8,1.1-3.4l-3.9,1.9v5.4h-1v-4.9l-3.3,1.6c-0.2,2.2-1.1,3.3-2.7,3.3c-0.8,0-1.4-0.4-1.9-1.1l-15.4,7.7
	c1,0.5,1.5,1.8,1.5,3.7c0,2.7-1,4.1-2.7,4.1c-1.5,0-2.6-1.4-2.6-4c0-0.8,0.1-1.5,0.3-2l-1.1,0.6v15.1l3.2-1.6V137.3z M389.1,78.6
	c1.6,0,2.6,1.5,2.6,3.9c0,2.7-1,4.1-2.7,4.1c-1.5,0-2.6-1.4-2.6-4C386.4,80.1,387.6,78.6,389.1,78.6z M382.8,78.7h0.9v7.8h-1v-6.8h0
	l-1.4,0.7l-0.2-0.8L382.8,78.7z M297.5,43.3h-1v-6.8h0l-1.4,0.7l-0.2-0.8l1.7-0.9h0.9V43.3z M308.9,35.5h0.9v7.8h-1v-6.8h0l-1.4,0.7
	l-0.2-0.8L308.9,35.5z M302.8,43.5c-1.5,0-2.6-1.4-2.6-4c0-2.6,1.1-4.1,2.7-4.1c1.6,0,2.6,1.5,2.6,3.9
	C305.5,42,304.6,43.5,302.8,43.5z M309,57.9c-1.5,0-2.6-1.4-2.6-4c0-2.6,1.1-4.1,2.7-4.1c1.6,0,2.6,1.5,2.6,3.9
	C311.7,56.4,310.7,57.9,309,57.9z M315.1,57.9c-1.5,0-2.6-1.4-2.6-4c0-2.6,1.1-4.1,2.7-4.1c1.6,0,2.6,1.5,2.6,3.9
	C317.8,56.4,316.9,57.9,315.1,57.9z M322.1,57.7h-1v-6.8h0l-1.4,0.7l-0.2-0.8l1.7-0.9h0.9V57.7z M327.4,57.9c-1.5,0-2.6-1.4-2.6-4
	c0-2.6,1.1-4.1,2.7-4.1c1.6,0,2.6,1.5,2.6,3.9C330.2,56.4,329.2,57.9,327.4,57.9z M334.4,57.7h-1v-6.8h0l-1.4,0.7l-0.2-0.8l1.7-0.9
	h0.9V57.7z M339.8,57.9c-1.5,0-2.6-1.4-2.6-4c0-2.6,1.1-4.1,2.7-4.1c1.6,0,2.6,1.5,2.6,3.9C342.5,56.4,341.5,57.9,339.8,57.9z
	 M352.9,72.1h-1v-6.8h0l-1.4,0.7l-0.2-0.8l1.7-0.9h0.9V72.1z M358.2,72.3c-1.5,0-2.6-1.4-2.6-4c0-2.6,1.1-4.1,2.7-4.1
	c1.6,0,2.6,1.5,2.6,3.9C360.9,70.8,360,72.3,358.2,72.3z M364.4,72.3c-1.5,0-2.6-1.4-2.6-4c0-2.6,1.1-4.1,2.7-4.1
	c1.6,0,2.6,1.5,2.6,3.9C367.1,70.8,366.1,72.3,364.4,72.3z M371.4,72.1h-1v-6.8h0l-1.4,0.7l-0.2-0.8l1.7-0.9h0.9V72.1z M364.5,93
	c1.6,0,2.6,1.5,2.6,3.9c0,2.7-1,4.1-2.7,4.1c-1.5,0-2.6-1.4-2.6-4C361.8,94.5,362.9,93,364.5,93z M358.2,93.1h0.9v7.8h-1v-6.8h0
	l-1.4,0.7l-0.2-0.8L358.2,93.1z M339.9,107.4c1.6,0,2.6,1.5,2.6,3.9c0,2.7-1,4.1-2.7,4.1c-1.5,0-2.6-1.4-2.6-4
	C337.2,108.9,338.3,107.4,339.9,107.4z M333.5,107.5h0.9v7.8h-1v-6.8h0l-1.4,0.7l-0.2-0.8L333.5,107.5z M309.1,121.8
	c1.6,0,2.6,1.5,2.6,3.9c0,2.7-1,4.1-2.7,4.1c-1.5,0-2.6-1.4-2.6-4C306.4,123.3,307.5,121.8,309.1,121.8z M302.8,121.9h0.9v7.8h-1
	v-6.8h0l-1.4,0.7l-0.2-0.8L302.8,121.9z"/>
<path d="M327.5,114.7c1.1,0,1.6-1.3,1.6-3.3c0-1.9-0.5-3.2-1.6-3.2c-0.9,0-1.6,1.1-1.6,3.3C325.9,113.5,326.5,114.7,327.5,114.7z"/>
<path d="M347.6,68.2c0-1.9-0.5-3.2-1.6-3.2c-0.9,0-1.6,1.1-1.6,3.3c0,0.9,0.1,1.7,0.4,2.2l1.9,0.7C347.3,70.7,347.6,69.7,347.6,68.2
	z"/>
<path d="M339.8,65c-0.9,0-1.6,1.1-1.6,3.2l3.1,1.1c0-0.3,0.1-0.7,0.1-1.1C341.4,66.3,340.9,65,339.8,65z"/>
<path d="M376.8,93.8c-0.9,0-1.6,1.1-1.6,3.3c0,0.3,0,0.7,0.1,0.9l3.1-1.6C378.2,94.9,377.7,93.8,376.8,93.8z"/>
<path d="M347.6,111.4c0-1.9-0.5-3.2-1.6-3.2c-0.9,0-1.6,1.1-1.6,3.3c0,0.8,0.1,1.5,0.3,2l2.9-1.5
	C347.6,111.8,347.6,111.6,347.6,111.4z"/>
<path d="M376.8,85.9c1.1,0,1.6-1.3,1.6-3.3c0-1.9-0.5-3.2-1.6-3.2c-0.6,0-1.2,0.6-1.4,1.6l2.8,1l-3,1.5
	C375.4,85,375.9,85.9,376.8,85.9z"/>
<path d="M321.4,122.6c-0.9,0-1.6,1.1-1.6,3.3c0,0.1,0,0.1,0,0.2l3.1-1.6C322.7,123.3,322.2,122.6,321.4,122.6z"/>
<path d="M371.2,79.6c-0.1-0.1-0.3-0.1-0.5-0.2L371.2,79.6z"/>
<path d="M370.6,85.9c0.4,0,0.8-0.2,1-0.6l-1.1,0.6C370.5,85.8,370.6,85.9,370.6,85.9z"/>
</svg>
